<?xml version="1.0" encoding="iso-8859-1"?>
<!-- Uploaded to: SVG Repo, www.svgrepo.com, Generator: SVG Repo Mixer Tools -->
<svg fill="#95b08a" version="1.1" id="Capa_1" xmlns="http://www.w3.org/2000/svg" xmlns:xlink="http://www.w3.org/1999/xlink" 
	 viewBox="0 0 60 60" xml:space="preserve">
<g>
	<g>
		<path d="M59,0H1C0.4,0,0,0.4,0,1v58c0,0.6,0.4,1,1,1h58c0.6,0,1-0.4,1-1V1C60,0.4,59.6,0,59,0z M58,58H2V2h56V58z"/>
		<path d="M9,51h6c0.6,0,1-0.4,1-1v-6V18c0-0.3-0.1-0.5-0.2-0.7l-2.9-7.6c-0.1-0.3-0.5-0.6-0.9-0.6s-0.8,0.2-0.9,0.6l-2.9,7.6
			C8.1,17.5,8,17.7,8,18v26v6C8,50.6,8.4,51,9,51z M14,43h-1V19h1V43z M11.9,12.8l1.6,4.2h-3.1L11.9,12.8z M10,19h1v24h-1V19z
			 M10,45h4v4h-4V45z"/>
		<rect x="17" y="9" width="36" height="2"/>
		<rect x="19" y="49" width="34" height="2"/>
		<path d="M30,34.9V42c0,0.6,0.4,1,1,1h16c0.6,0,1-0.4,1-1V26c0-0.6-0.4-1-1-1h-7.1c-0.5-4.5-4.3-8-8.9-8c-5,0-9,4-9,9
			C22,30.7,25.5,34.5,30,34.9z M46,27v14H32v-6.1c4.2-0.5,7.5-3.7,7.9-7.9H46z M32,32.9V27h5.9C37.5,30.1,35.1,32.5,32,32.9z M31,19
			c3.6,0,6.4,2.6,6.9,6H31c-0.6,0-1,0.4-1,1v6.9c-3.4-0.5-6-3.4-6-6.9C24,22.1,27.1,19,31,19z"/>
		<rect x="34" y="37" width="2" height="2"/>
		<rect x="38" y="37" width="2" height="2"/>
		<rect x="42" y="37" width="2" height="2"/>
		<rect x="42" y="33" width="2" height="2"/>
		<rect x="42" y="29" width="2" height="2"/>
		<rect x="18" y="13" width="2" height="2"/>
		<rect x="22" y="13" width="2" height="2"/>
		<rect x="26" y="13" width="2" height="2"/>
		<rect x="30" y="13" width="2" height="2"/>
		<rect x="34" y="13" width="2" height="2"/>
		<rect x="38" y="13" width="2" height="2"/>
		<rect x="42" y="13" width="2" height="2"/>
		<rect x="46" y="13" width="2" height="2"/>
		<rect x="50" y="13" width="2" height="2"/>
		<rect x="22" y="45" width="2" height="2"/>
		<rect x="26" y="45" width="2" height="2"/>
		<rect x="30" y="45" width="2" height="2"/>
		<rect x="34" y="45" width="2" height="2"/>
		<rect x="38" y="45" width="2" height="2"/>
		<rect x="42" y="45" width="2" height="2"/>
		<rect x="46" y="45" width="2" height="2"/>
		<rect x="50" y="45" width="2" height="2"/>
		<rect x="19" y="36" width="6" height="2"/>
		<rect x="19" y="40" width="6" height="2"/>
		<rect x="46" y="17" width="6" height="2"/>
		<rect x="46" y="21" width="6" height="2"/>
	</g>
</g>
</svg>