<svg width="738" height="618" viewBox="0 0 738 618" fill="none" xmlns="http://www.w3.org/2000/svg">
<g filter="url(#filter0_i_141_210)">
<path d="M234.5 271C237 287.5 244 300 227.5 326C213.5 336.5 178.435 358.336 170 361C160.5 364 145.5 368.5 129 364C121.015 361.822 115 348 98 338C81 328 69 313 71 301C73 289 70.5 256.5 66 241.5C61.5 226.5 56.5 240 60 251.5C63.5 263 61 265 60 287.5C59 310 56.5 319 75.5 338C94.5 357 90 355 107 378C124 401 173.5 394 189 390C204.5 386 242.945 367.604 234.5 383.5C226 399.5 228.5 433 208.5 437C180.887 442.523 150.88 432.577 138 440C108.5 457 78 463.5 58 460.5C39.7046 457.756 76 488 121.5 470C167 452 179.157 486.264 221 474C250 465.5 254.5 440 276.5 407.5C299.575 373.411 290 363.5 317.5 363.5C323.5 363.5 320.731 374.5 314.5 405C306.664 443.355 299.5 436 277.5 453.5C255.5 471 265.5 498 252.5 511.5C239.5 525 221 530 198.5 534.5C176 539 171.5 575 189 556.5C206.5 538 221 553.5 252.5 545C284 536.5 274.5 517.5 291.5 488C308.5 458.5 311.5 464.5 338.5 461.5C365.5 458.5 348.5 399 367 393C372.423 391.241 372.646 397.174 376 405C382 419 371 449.5 389.5 483C408 516.5 419.5 502.5 427.5 517.5C435.5 532.5 422 562.5 427.5 595C433 627.5 445.5 619 442 606C438.5 593 435 573 445.5 538.5C456 504 439.377 506.347 419.5 464.5C400.5 424.5 424 408 422 390C420.399 375.589 427.5 373.5 431.5 374.5C443.48 377.495 471.5 435.5 497 439.5C522.5 443.5 535 466 546 477.5C557 489 577.5 494 600 498C622.5 502 628 492 653 474C673 459.6 636.333 474 615.5 483C601.5 482 571.8 476.3 565 461.5C558.2 446.7 534.5 430.667 523.5 424.5C514.333 423.167 494.3 415.7 487.5 396.5C479 372.5 476.5 378 471.5 366.5C467.5 357.3 473.167 355 476.5 355C483 362.667 501.5 379.5 523.5 385.5C551 393 547 386 565 378C583 370 602 385.5 620 396.5C638 407.5 655.5 390 672.5 390C689.5 390 699 413.5 712.5 420.5C726 427.5 751.5 406.5 728.5 409.5C705.5 412.5 709.5 399 687 378C664.5 357 656 364.5 636.5 369.5C617 374.5 605.5 349 588.5 340C571.5 331 548 340.5 526.5 335.5C505 330.5 497.347 301.839 504 277C511.5 249 521.5 208.667 523.5 189C525.333 173.167 524.4 132.1 506 94.5C483 47.5 459 35 439.5 20.5C420 6 392 -1.5 360 1C328 3.5 308 18 289 30C270 42 243 81.5 232.5 111.5C222.137 141.109 221.515 171.693 221.02 196.04L221 197C220.5 221.5 231.917 253.954 234.5 271Z" fill="#4DFF0C"/>
</g>
<g filter="url(#filter1_i_141_210)">
<ellipse cx="428" cy="175.5" rx="30" ry="35.5" fill="white"/>
</g>
<g filter="url(#filter2_i_141_210)">
<ellipse cx="318" cy="175.5" rx="30" ry="35.5" fill="white"/>
</g>
<g filter="url(#filter3_i_141_210)">
<ellipse cx="318.5" cy="176" rx="12.5" ry="13" fill="black"/>
</g>
<g filter="url(#filter4_i_141_210)">
<ellipse cx="428.5" cy="176" rx="12.5" ry="13" fill="black"/>
</g>
<g filter="url(#filter5_i_141_210)">
<path d="M405.429 250.151L335.98 251.158C332.032 251.215 328.441 253.202 329.601 256.976C332.454 266.259 346.368 282.789 376.859 280.069C410.32 277.083 428.926 249.811 405.429 250.151Z" fill="#F5F5F5"/>
</g>
<g filter="url(#filter6_i_141_210)">
<ellipse cx="441.353" cy="59.8957" rx="16" ry="9" transform="rotate(42.4455 441.353 59.8957)" fill="#00B51B"/>
</g>
<ellipse cx="479.59" cy="99.7465" rx="9.9296" ry="5.16139" transform="rotate(46.3331 479.59 99.7465)" fill="#00B51B"/>
<g filter="url(#filter7_i_141_210)">
<path d="M536.5 282C521.7 281.6 510.5 274.5 502 287C492.5 314.5 513.5 334.5 529 337.5C530 336.833 524.652 326.861 536.5 322C556 314 553.192 313.44 566 311C576.5 309 591.5 313 606.5 304C621.5 295 629 282 632 269.5C635 257 633.5 267 666 269.5C698.5 272 699 251.5 706 243C713 234.5 711 227 699 239C687 251 674.5 257.5 640.5 245.5C606.5 233.5 613.5 267 597 282C580.5 297 555 282.5 536.5 282Z" fill="#14E433"/>
</g>
<g filter="url(#filter8_i_141_210)">
<path d="M185.149 286.892C203.434 301.719 227.239 289.063 236.856 280.882C246.224 319.452 222.493 341.325 211.752 346C194.766 332.809 171.5 305.413 154 310C138.691 314.013 122.5 323 104 324.5C91.8567 325.485 77 319 61 324.5C41.2518 331.288 31.5 338.5 28.1554 342C16.7444 353.941 -1.85966e-05 391 0 372C1.28313e-05 358.89 11.6691 331.474 28.1554 319.452C44.6416 307.43 57.381 293.404 82.1104 297.913C106.84 302.421 124.398 276.563 142.81 273.869C159 271.5 162.294 268.359 185.149 286.892Z" fill="#14E433"/>
</g>
<defs>
<filter id="filter0_i_141_210" x="37.1618" y="0.525223" width="700.587" height="627.05" filterUnits="userSpaceOnUse" color-interpolation-filters="sRGB">
<feFlood flood-opacity="0" result="BackgroundImageFix"/>
<feBlend mode="normal" in="SourceGraphic" in2="BackgroundImageFix" result="shape"/>
<feColorMatrix in="SourceAlpha" type="matrix" values="0 0 0 0 0 0 0 0 0 0 0 0 0 0 0 0 0 0 127 0" result="hardAlpha"/>
<feOffset dx="-16" dy="10"/>
<feGaussianBlur stdDeviation="13"/>
<feComposite in2="hardAlpha" operator="arithmetic" k2="-1" k3="1"/>
<feColorMatrix type="matrix" values="0 0 0 0 0.881105 0 0 0 0 0.995833 0 0 0 0 0.0124479 0 0 0 1 0"/>
<feBlend mode="normal" in2="shape" result="effect1_innerShadow_141_210"/>
</filter>
<filter id="filter1_i_141_210" x="395" y="136" width="63" height="75" filterUnits="userSpaceOnUse" color-interpolation-filters="sRGB">
<feFlood flood-opacity="0" result="BackgroundImageFix"/>
<feBlend mode="normal" in="SourceGraphic" in2="BackgroundImageFix" result="shape"/>
<feColorMatrix in="SourceAlpha" type="matrix" values="0 0 0 0 0 0 0 0 0 0 0 0 0 0 0 0 0 0 127 0" result="hardAlpha"/>
<feMorphology radius="3" operator="dilate" in="SourceAlpha" result="effect1_innerShadow_141_210"/>
<feOffset dx="-3" dy="-4"/>
<feGaussianBlur stdDeviation="10"/>
<feComposite in2="hardAlpha" operator="arithmetic" k2="-1" k3="1"/>
<feColorMatrix type="matrix" values="0 0 0 0 0 0 0 0 0 0 0 0 0 0 0 0 0 0 0.25 0"/>
<feBlend mode="normal" in2="shape" result="effect1_innerShadow_141_210"/>
</filter>
<filter id="filter2_i_141_210" x="285" y="136" width="63" height="75" filterUnits="userSpaceOnUse" color-interpolation-filters="sRGB">
<feFlood flood-opacity="0" result="BackgroundImageFix"/>
<feBlend mode="normal" in="SourceGraphic" in2="BackgroundImageFix" result="shape"/>
<feColorMatrix in="SourceAlpha" type="matrix" values="0 0 0 0 0 0 0 0 0 0 0 0 0 0 0 0 0 0 127 0" result="hardAlpha"/>
<feMorphology radius="3" operator="dilate" in="SourceAlpha" result="effect1_innerShadow_141_210"/>
<feOffset dx="-3" dy="-4"/>
<feGaussianBlur stdDeviation="10"/>
<feComposite in2="hardAlpha" operator="arithmetic" k2="-1" k3="1"/>
<feColorMatrix type="matrix" values="0 0 0 0 0 0 0 0 0 0 0 0 0 0 0 0 0 0 0.25 0"/>
<feBlend mode="normal" in2="shape" result="effect1_innerShadow_141_210"/>
</filter>
<filter id="filter3_i_141_210" x="303" y="161" width="28" height="28" filterUnits="userSpaceOnUse" color-interpolation-filters="sRGB">
<feFlood flood-opacity="0" result="BackgroundImageFix"/>
<feBlend mode="normal" in="SourceGraphic" in2="BackgroundImageFix" result="shape"/>
<feColorMatrix in="SourceAlpha" type="matrix" values="0 0 0 0 0 0 0 0 0 0 0 0 0 0 0 0 0 0 127 0" result="hardAlpha"/>
<feMorphology radius="3" operator="dilate" in="SourceAlpha" result="effect1_innerShadow_141_210"/>
<feOffset dx="-3" dy="-2"/>
<feGaussianBlur stdDeviation="7.5"/>
<feComposite in2="hardAlpha" operator="arithmetic" k2="-1" k3="1"/>
<feColorMatrix type="matrix" values="0 0 0 0 1 0 0 0 0 1 0 0 0 0 1 0 0 0 0.75 0"/>
<feBlend mode="normal" in2="shape" result="effect1_innerShadow_141_210"/>
</filter>
<filter id="filter4_i_141_210" x="413" y="161" width="28" height="28" filterUnits="userSpaceOnUse" color-interpolation-filters="sRGB">
<feFlood flood-opacity="0" result="BackgroundImageFix"/>
<feBlend mode="normal" in="SourceGraphic" in2="BackgroundImageFix" result="shape"/>
<feColorMatrix in="SourceAlpha" type="matrix" values="0 0 0 0 0 0 0 0 0 0 0 0 0 0 0 0 0 0 127 0" result="hardAlpha"/>
<feMorphology radius="3" operator="dilate" in="SourceAlpha" result="effect1_innerShadow_141_210"/>
<feOffset dx="-3" dy="-2"/>
<feGaussianBlur stdDeviation="7.5"/>
<feComposite in2="hardAlpha" operator="arithmetic" k2="-1" k3="1"/>
<feColorMatrix type="matrix" values="0 0 0 0 1 0 0 0 0 1 0 0 0 0 1 0 0 0 0.75 0"/>
<feBlend mode="normal" in2="shape" result="effect1_innerShadow_141_210"/>
</filter>
<filter id="filter5_i_141_210" x="324.38" y="247.148" width="91.575" height="33.2189" filterUnits="userSpaceOnUse" color-interpolation-filters="sRGB">
<feFlood flood-opacity="0" result="BackgroundImageFix"/>
<feBlend mode="normal" in="SourceGraphic" in2="BackgroundImageFix" result="shape"/>
<feColorMatrix in="SourceAlpha" type="matrix" values="0 0 0 0 0 0 0 0 0 0 0 0 0 0 0 0 0 0 127 0" result="hardAlpha"/>
<feOffset dx="-5" dy="-3"/>
<feGaussianBlur stdDeviation="10"/>
<feComposite in2="hardAlpha" operator="arithmetic" k2="-1" k3="1"/>
<feColorMatrix type="matrix" values="0 0 0 0 0.65 0 0 0 0 1 0 0 0 0 0 0 0 0 0.5 0"/>
<feBlend mode="normal" in2="shape" result="effect1_innerShadow_141_210"/>
</filter>
<filter id="filter6_i_141_210" x="428.073" y="47.2168" width="26.5605" height="30.3577" filterUnits="userSpaceOnUse" color-interpolation-filters="sRGB">
<feFlood flood-opacity="0" result="BackgroundImageFix"/>
<feBlend mode="normal" in="SourceGraphic" in2="BackgroundImageFix" result="shape"/>
<feColorMatrix in="SourceAlpha" type="matrix" values="0 0 0 0 0 0 0 0 0 0 0 0 0 0 0 0 0 0 127 0" result="hardAlpha"/>
<feMorphology radius="1" operator="dilate" in="SourceAlpha" result="effect1_innerShadow_141_210"/>
<feOffset dy="5"/>
<feGaussianBlur stdDeviation="4"/>
<feComposite in2="hardAlpha" operator="arithmetic" k2="-1" k3="1"/>
<feColorMatrix type="matrix" values="0 0 0 0 0.65 0 0 0 0 1 0 0 0 0 0 0 0 0 0.5 0"/>
<feBlend mode="normal" in2="shape" result="effect1_innerShadow_141_210"/>
</filter>
<filter id="filter7_i_141_210" x="499.622" y="232.751" width="215.405" height="115.749" filterUnits="userSpaceOnUse" color-interpolation-filters="sRGB">
<feFlood flood-opacity="0" result="BackgroundImageFix"/>
<feBlend mode="normal" in="SourceGraphic" in2="BackgroundImageFix" result="shape"/>
<feColorMatrix in="SourceAlpha" type="matrix" values="0 0 0 0 0 0 0 0 0 0 0 0 0 0 0 0 0 0 127 0" result="hardAlpha"/>
<feOffset dx="5" dy="11"/>
<feGaussianBlur stdDeviation="10"/>
<feComposite in2="hardAlpha" operator="arithmetic" k2="-1" k3="1"/>
<feColorMatrix type="matrix" values="0 0 0 0 1 0 0 0 0 0.957986 0 0 0 0 0.495833 0 0 0 1 0"/>
<feBlend mode="normal" in2="shape" result="effect1_innerShadow_141_210"/>
</filter>
<filter id="filter8_i_141_210" x="0" y="272.057" width="239" height="114.265" filterUnits="userSpaceOnUse" color-interpolation-filters="sRGB">
<feFlood flood-opacity="0" result="BackgroundImageFix"/>
<feBlend mode="normal" in="SourceGraphic" in2="BackgroundImageFix" result="shape"/>
<feColorMatrix in="SourceAlpha" type="matrix" values="0 0 0 0 0 0 0 0 0 0 0 0 0 0 0 0 0 0 127 0" result="hardAlpha"/>
<feOffset dy="9"/>
<feGaussianBlur stdDeviation="25.5"/>
<feComposite in2="hardAlpha" operator="arithmetic" k2="-1" k3="1"/>
<feColorMatrix type="matrix" values="0 0 0 0 1 0 0 0 0 1 0 0 0 0 0.0583333 0 0 0 1 0"/>
<feBlend mode="normal" in2="shape" result="effect1_innerShadow_141_210"/>
</filter>
</defs>
</svg>
