<?xml version="1.0" encoding="UTF-8"?>
<svg id="Layer_2" data-name="Layer 2" xmlns="http://www.w3.org/2000/svg" xmlns:xlink="http://www.w3.org/1999/xlink" viewBox="0 0 573.79 521.82">
  <defs>
    <style>
      .cls-1 {
        fill: #26a50f;
      }

      .cls-1, .cls-2, .cls-3, .cls-4, .cls-5, .cls-6, .cls-7, .cls-8, .cls-9, .cls-10, .cls-11 {
        stroke-width: 0px;
      }

      .cls-2 {
        fill: url(#linear-gradient);
      }

      .cls-3 {
        fill: #61ef52;
      }

      .cls-4 {
        fill: url(#linear-gradient-6);
      }

      .cls-5 {
        fill: url(#linear-gradient-5);
      }

      .cls-6 {
        fill: url(#linear-gradient-2);
      }

      .cls-7 {
        fill: url(#linear-gradient-7);
      }

      .cls-8 {
        fill: url(#linear-gradient-3);
      }

      .cls-9 {
        fill: #bfedb9;
      }

      .cls-10 {
        fill: #231f20;
      }

      .cls-11 {
        fill: url(#linear-gradient-4);
      }
    </style>
    <linearGradient id="linear-gradient" x1="570.91" y1="330.03" x2="434.38" y2="283.35" gradientUnits="userSpaceOnUse">
      <stop offset="0" stop-color="#31bf1d"/>
      <stop offset="1" stop-color="#26a50f"/>
    </linearGradient>
    <linearGradient id="linear-gradient-2" x1="204.75" y1="312.91" x2="366.55" y2="117.31" gradientUnits="userSpaceOnUse">
      <stop offset="0" stop-color="#61ef52"/>
      <stop offset="1" stop-color="#1ce200"/>
    </linearGradient>
    <linearGradient id="linear-gradient-3" x1="476.77" y1="46.7" x2="424.8" y2="192.92" xlink:href="#linear-gradient"/>
    <linearGradient id="linear-gradient-4" x1="345.89" y1="505.63" x2="293.92" y2="357.64" xlink:href="#linear-gradient"/>
    <linearGradient id="linear-gradient-5" x1="116.37" y1="244.05" x2="199.92" y2="244.05" xlink:href="#linear-gradient"/>
    <linearGradient id="linear-gradient-6" x1="92.44" y1="259.4" x2="95.84" y2="278.97" xlink:href="#linear-gradient"/>
    <linearGradient id="linear-gradient-7" x1="0" y1="233.37" x2="67.84" y2="233.37" xlink:href="#linear-gradient"/>
  </defs>
  <g id="Coloring_2" data-name="Coloring 2">
    <g>
      <g>
        <path class="cls-2" d="M573.78,315.59c.09,8.78-1.13,17.42-5.15,25.31-3.63,7.13-8.94,13.39-15.29,18.24-12.92,9.86-33,15.05-46.14,1.95-7.97-7.94-9.41-17.42-9.74-20.34.06-7.33,5.4-13.15,11.63-13.69,12.95-1.15,11.03,16.02,22.19,17.77,14.77,2.31,21.01-21.28,16.91-31.89-3.08-7.98-10.26-13.72-18.74-14.98-4.11-.61-8.43-.59-12.57-.67-5.01-.09-10.02.03-15.02.36-11.19.73-22.53,3.04-33.34,6.43-12.85,4.03-25.17,9.58-38.07,13.44-6.46,1.93-13.06,3.43-19.77,4.04-3.34.31-6.7.4-10.05.24-2.82-.14-6.46.06-9.12-.9-3.15-1.14-6.32-2.24-9.48-3.32-.95-.33-.79-1.74.22-1.82,16.47-1.3,31.61-11.84,41.71-25.16,3.18-4.19,5.95-8.64,8.41-13.26,8.29-.67,16.56-1.56,24.48-3.52,10.98-2.72,20.96-7.62,31.71-10.64,12.47-3.5,25.74-4.41,38.54-2.32,12.13,1.98,25.5,5.72,33.47,15.62,4.01,4.98,6.93,10.76,9.13,16.74,2.63,7.16,3.99,14.75,4.08,22.37ZM553.09,301.29c3.23-.8,4.64-6.27,3.16-12.22-1.48-5.94-5.29-10.11-8.51-9.31s-4.64,6.27-3.16,12.22c1.48,5.94,5.29,10.11,8.51,9.31Z"/>
        <path class="cls-3" d="M556.25,289.07c1.48,5.95.07,11.42-3.16,12.22-3.22.8-7.03-3.37-8.51-9.31-1.48-5.95-.06-11.42,3.16-12.22s7.03,3.37,8.51,9.31Z"/>
        <path class="cls-6" d="M495.06,187.63c9.79,9.68,14.01,24.24,12.43,37.91-2.07,17.87-17.48,35.79-35.24,32.94-9.45-1.51-17.92-13.5-11.29-20.4,6.85-7.13,20.74.02,27.5-8.67,4-5.15,2.75-12.5-2.17-16.77-8.21-7.12-19.97-3.61-26.97,3.55-.23.22-.45.46-.66.69-4.8,5.28-7.62,11.95-9.99,18.74-.56,1.61-1.1,3.23-1.63,4.83-4.16,12.56-8.46,25.27-14.67,36.89-2.46,4.62-5.23,9.07-8.41,13.26-10.1,13.32-25.24,23.86-41.71,25.16-1.01.08-1.17,1.49-.22,1.82,3.16,1.08,6.33,2.18,9.48,3.32,15.55,5.61,30.77,12.11,43.92,21.98,17.24,12.94,30.66,32.89,30.22,54.44-.51,24.41-18.95,45.82-41.19,55.93-7.85,3.57-17.52,4.44-25.99,2.8-6.44-1.24-12.04-4.45-14.75-9.68-1.09-2.1.89-4.49,3.17-3.88,13.66,3.68,29.52-1.32,38.18-12.61,9.71-12.66,9.44-31.98-.61-44.36-10.1-12.45-27.28-16.71-43.31-17.32-12.32-.47-24.74.76-37.01.1-3.69-.2-7.37-.57-11.02-1.2-21.67-3.76-41.39-17.38-52.73-36.2-.82-1.37-2.76-1.35-3.59.01-3.38,5.54-7.79,10.2-12.83,14.3-11.08,9-25.19,15.22-38.1,21.84-19.87,10.19-40.68,26.68-40.3,49.01.26,15.46,12.24,30.16,27.79,32.59,4.6.72,7.94-2.46,6.94-7.01-.93-4.24-5.81-4.18-9.07-6.11-4.25-2.52-5.3-8.69-3.07-13.1,2.22-4.41,6.94-7.13,11.76-8.21,14.44-3.22,29.88,7.7,33.51,22.04,3.64,14.34-3.45,30.18-15.44,38.83-12,8.65-28,10.64-42.43,7.39-22.09-4.96-41.03-22.09-48.18-43.57-7.13-21.4-2.77-45.31,7.08-65.61,1.19-2.46,2.46-4.88,3.79-7.25,8.94-15.93,20.83-30.11,32.93-43.9.75-.85-.12-2.15-1.19-1.77-8.69,3.08-17.81,4.54-26.97,4.55-28.38.03-57.17-13.85-74.98-36.42-13.77-17.45-21.24-39.04-22.88-61.25-.91-12.43,0-25.06,2.68-37.26,1.03-4.75,2.33-9.43,3.89-14.02,5.68-16.64,14.62-33.14,12.88-50.63-.83-8.33-4.95-17.25-13.37-19.41-5.43-1.39-11.24,1.21-13.26,6.44-3.1,8.03,6.84,11.76,3.64,19.78-1.79,4.5-6.64,6.98-11.43,6.27-8.51-1.26-13.16-9.53-14.7-17.51-8.41-43.68,47.53-54.18,72.56-26.91,14.86,16.18,17.23,40.27,15.09,62.13-1.8,18.55-6.29,36.97-6.73,55.51-.09,3.31-.04,6.63.18,9.95,1.42,21.92,12.41,45.29,33.11,52.66,12.95,4.61,28.26,1.83,38.77-7.03,5.31-4.47,8.78-9.78,10.92-15.61.75-2.06.69-4.3-.09-6.29-.34-.89-.83-1.74-1.45-2.5-21.21-25.74-34.33-61.26-34.33-100.49C163.52,63.73,216.18,0,281.14,0s117.62,63.73,117.62,142.34c0,32.54-9.02,62.53-24.22,86.5-.67,1.08-1.37,2.15-2.08,3.2-3.01,4.48-1.77,10.67,2.93,13.33.03.02.06.03.09.05,11.12,6.23,25.69,1.3,34.84-7.56,9.16-8.87,14.43-20.87,20.62-32.02,6.19-11.14,14.2-22.25,26.06-26.9,3.93-1.54,8.11-2.23,12.29-2.16,9.48.14,18.99,4.14,25.77,10.85ZM390.29,284.91c5.89-.69,10.39-3.59,10.05-6.49s-5.38-4.7-11.27-4.01c-5.89.68-10.38,3.59-10.05,6.49.34,2.9,5.39,4.7,11.27,4.01ZM374.92,272.62c6.81-1.69,11.62-5.88,10.76-9.34-.86-3.47-7.08-4.91-13.88-3.22-6.81,1.7-11.62,5.88-10.76,9.35s7.08,4.91,13.88,3.21ZM365.43,58.64c.98-3.54-3.84-7.97-10.77-9.89s-13.34-.61-14.32,2.93c-.99,3.54,3.83,7.97,10.76,9.89s13.35.61,14.33-2.93ZM346.58,189.91c0-4.6-5.51-8.34-12.3-8.34s-12.29,3.74-12.29,8.34,5.5,8.34,12.29,8.34,12.3-3.73,12.3-8.34ZM335.61,35.69c1.25-4.52-5.91-10.46-16-13.25-10.09-2.8-19.28-1.4-20.54,3.12-1.25,4.52,5.91,10.46,16,13.25,10.09,2.8,19.28,1.41,20.54-3.12ZM332.14,64.07c.95-3.41-4.91-8.01-13.08-10.27-8.17-2.27-15.56-1.34-16.5,2.06-.95,3.41,4.91,8.01,13.08,10.28,8.17,2.26,15.56,1.34,16.5-2.07ZM327.79,161.79c0-8.21-5.15-14.88-11.5-14.88s-11.51,6.67-11.51,14.88,5.15,14.88,11.51,14.88,11.5-6.66,11.5-14.88ZM250.23,329.39c6.5-5.25,9.48-12.34,6.65-15.84-2.82-3.5-10.38-2.08-16.88,3.17-6.5,5.24-9.48,12.33-6.65,15.83,2.82,3.5,10.38,2.08,16.88-3.16ZM257.33,161.79c0-8.21-5.15-14.88-11.51-14.88s-11.5,6.67-11.5,14.88,5.15,14.88,11.5,14.88,11.51-6.66,11.51-14.88ZM237.98,189.91c0-4.6-5.5-8.34-12.29-8.34s-12.29,3.74-12.29,8.34,5.5,8.34,12.29,8.34,12.29-3.73,12.29-8.34ZM218.55,360.41c4.62-3.73,6.74-8.78,4.72-11.28-2.01-2.5-7.4-1.49-12.02,2.24-4.63,3.73-6.75,8.79-4.73,11.28,2.02,2.5,7.4,1.5,12.03-2.24ZM214.06,335.13c5.95-4.8,8.58-11.4,5.89-14.74-2.7-3.34-9.71-2.16-15.66,2.64-5.94,4.8-8.58,11.4-5.88,14.74,2.7,3.35,9.7,2.16,15.65-2.64ZM204.83,162.6c3.83-.44,6.32-6.15,5.55-12.74-.76-6.59-4.5-11.56-8.33-11.12-3.84.45-6.33,6.15-5.56,12.74s4.5,11.57,8.34,11.12ZM184.92,155.21c4.98-.58,8.13-8.58,7.05-17.87s-5.99-16.35-10.97-15.78c-4.97.58-8.13,8.59-7.05,17.88s5.99,16.35,10.97,15.77ZM94.02,171.81c2.05-6.85,1.07-13.2-2.21-14.18-3.27-.98-7.6,3.77-9.65,10.61-2.06,6.85-1.07,13.2,2.21,14.18,3.27.98,7.59-3.77,9.65-10.61ZM93.34,212.94c.8-7.88-2-14.62-6.28-15.06-4.27-.43-8.38,5.6-9.19,13.48-.8,7.87,2.01,14.62,6.28,15.05,4.27.44,8.38-5.59,9.19-13.47Z"/>
        <path class="cls-8" d="M456.75,84.46c-1.35,4.75-1.65,10.34-.09,16.81,4.77,19.79,11.53,39.39,12.81,59.84.32,5.17.26,10.42-.18,15.67-4.18-.07-8.36.62-12.29,2.16-11.86,4.65-19.87,15.76-26.06,26.9-6.19,11.15-11.46,23.15-20.62,32.02-9.15,8.86-23.72,13.79-34.84,7.56-.03-.02-.06-.03-.09-.05-4.7-2.66-5.94-8.85-2.93-13.33.71-1.05,1.41-2.12,2.08-3.2,10.14-1.27,20.03-5.25,27.3-12.49,8.31-8.27,12.88-19.53,16.06-30.61,3.52-12.28,5.92-24.9,7-37.64.12-1.37.21-2.75.29-4.13.02-.35.03-.7.05-1.05.04-.88.08-1.77.11-2.65.73-21.65-1.73-44.21,6.88-64.71,6.43-15.31,17.54-31.63,35.19-34.41,14.15-2.23,24.9,4.58,27.53,6.35.97.62,10.84,7.18,11.39,19.28.43,9.38-4.91,18.32-13.61,22.78-1.89.92-13.59,6.32-26.58.95-3.91-1.61-7.01-3.82-9.4-6.05ZM464.94,70.65c2.93.84,5.85,1.68,8.74,2.63,2.28.76,5.06,1.45,7.04-.38,1.76-1.63,2.58-4.55,1.57-6.75-1.12-2.45-4.4-3.91-7.59-2.85,0,0-4.92,2.36-9.76,7.35ZM463.02,166.09c3.22-.8,4.63-6.27,3.16-12.21-1.48-5.95-5.29-10.12-8.52-9.32-3.22.8-4.63,6.27-3.15,12.22,1.47,5.94,5.28,10.12,8.51,9.31ZM449.85,138.6c2.98-.74,4.28-5.79,2.92-11.28-1.37-5.49-4.88-9.34-7.86-8.6-2.97.74-4.28,5.79-2.92,11.28,1.37,5.49,4.89,9.34,7.86,8.6ZM444.35,157.45c2.33-.4,3.61-4.21,2.87-8.5-.74-4.29-3.22-7.44-5.55-7.04-2.32.41-3.61,4.21-2.87,8.5.74,4.29,3.23,7.44,5.55,7.04Z"/>
        <path class="cls-3" d="M466.18,153.88c1.47,5.94.06,11.41-3.16,12.21-3.23.81-7.04-3.37-8.51-9.31-1.48-5.95-.07-11.42,3.15-12.22,3.23-.8,7.04,3.37,8.52,9.32Z"/>
        <path class="cls-3" d="M452.77,127.32c1.36,5.49.06,10.54-2.92,11.28-2.97.74-6.49-3.11-7.86-8.6-1.36-5.49-.05-10.54,2.92-11.28,2.98-.74,6.49,3.11,7.86,8.6Z"/>
        <path class="cls-3" d="M447.22,148.95c.74,4.29-.54,8.1-2.87,8.5-2.32.4-4.81-2.75-5.55-7.04-.74-4.29.55-8.09,2.87-8.5,2.33-.4,4.81,2.75,5.55,7.04Z"/>
        <path class="cls-1" d="M400.34,278.42c.34,2.9-4.16,5.8-10.05,6.49-5.88.69-10.93-1.11-11.27-4.01-.33-2.9,4.16-5.81,10.05-6.49,5.89-.69,10.93,1.11,11.27,4.01Z"/>
        <path class="cls-1" d="M385.68,263.28c.86,3.46-3.95,7.65-10.76,9.34-6.8,1.7-13.02.26-13.88-3.21s3.95-7.65,10.76-9.35c6.8-1.69,13.02-.25,13.88,3.22Z"/>
        <path class="cls-11" d="M370.23,482.12c4.15,1.54,6.73,9.61,3.17,19.43-1.54,3.18-5.45,10.15-13.58,15.05-28.31,17.09-60.65-11.04-69.63-37.22-5.78-16.84-5.78-34.99-6.49-52.57-.33-8.07-.31-16.15-.07-24.22.19-6.32,1.29-12.84-.68-18.99-1.74-5.47-5.98-10.17-8.78-15.13-4.14-7.34-7.46-15.22-10.2-23.26,5.04-4.1,9.45-8.76,12.83-14.3.83-1.36,2.77-1.38,3.59-.01,11.34,18.82,31.06,32.44,52.73,36.2,3.65.63,7.33,1,11.02,1.2-1.73,14.36-5.34,25.93-8.35,33.83-6.84,20.2-16.59,74.7,4.76,86.89,1.48.85,6.49,2.52,12.44.91,4.25-1.16,7.02-3.54,8.3-4.8,1.01-.83,5.42-4.32,8.94-3.01ZM312.94,479.31c2.56-1.11,2.91-5.98.78-10.87s-5.92-7.95-8.48-6.84-2.9,5.98-.78,10.87c2.13,4.89,5.93,7.95,8.48,6.84ZM306.92,494.48c2.56-1.12,2.91-5.98.78-10.87s-5.92-7.96-8.48-6.84c-2.56,1.11-2.91,5.97-.78,10.86,2.13,4.89,5.92,7.96,8.48,6.85ZM296.99,462.43c2.96-.31,4.86-5.44,4.23-11.46-.63-6.03-3.54-10.66-6.5-10.35-2.97.3-4.86,5.44-4.24,11.46.63,6.03,3.54,10.66,6.51,10.35Z"/>
        <path class="cls-1" d="M354.66,48.75c6.93,1.92,11.75,6.35,10.77,9.89s-7.4,4.85-14.33,2.93-11.75-6.35-10.76-9.89c.98-3.54,7.39-4.85,14.32-2.93Z"/>
        <path class="cls-9" d="M334.28,181.57c6.79,0,12.3,3.74,12.3,8.34s-5.51,8.34-12.3,8.34-12.29-3.73-12.29-8.34,5.5-8.34,12.29-8.34Z"/>
        <path class="cls-1" d="M319.61,22.44c10.09,2.79,17.25,8.73,16,13.25-1.26,4.53-10.45,5.92-20.54,3.12-10.09-2.79-17.25-8.73-16-13.25,1.26-4.52,10.45-5.92,20.54-3.12Z"/>
        <path class="cls-1" d="M319.06,53.8c8.17,2.26,14.03,6.86,13.08,10.27-.94,3.41-8.33,4.33-16.5,2.07-8.17-2.27-14.03-6.87-13.08-10.28.94-3.4,8.33-4.33,16.5-2.06Z"/>
        <path class="cls-10" d="M312.77,159.41c2.81,0,5.09,2.59,5.09,5.78s-2.28,5.77-5.09,5.77-5.09-2.58-5.09-5.77,2.28-5.78,5.09-5.78Z"/>
        <path class="cls-3" d="M313.72,468.44c2.13,4.89,1.78,9.76-.78,10.87-2.55,1.11-6.35-1.95-8.48-6.84-2.12-4.89-1.78-9.76.78-10.87s6.35,1.95,8.48,6.84Z"/>
        <path class="cls-3" d="M307.7,483.61c2.13,4.89,1.78,9.75-.78,10.87-2.56,1.11-6.35-1.96-8.48-6.85-2.13-4.89-1.78-9.75.78-10.86,2.56-1.12,6.35,1.95,8.48,6.84Z"/>
        <path class="cls-3" d="M301.22,450.97c.63,6.02-1.27,11.15-4.23,11.46-2.97.31-5.88-4.32-6.51-10.35-.62-6.02,1.27-11.16,4.24-11.46,2.96-.31,5.87,4.32,6.5,10.35Z"/>
        <path class="cls-1" d="M256.88,313.55c2.83,3.5-.15,10.59-6.65,15.84-6.5,5.24-14.06,6.66-16.88,3.16-2.83-3.5.15-10.59,6.65-15.83,6.5-5.25,14.06-6.67,16.88-3.17Z"/>
        <path class="cls-10" d="M242.31,159.41c2.81,0,5.08,2.59,5.08,5.78s-2.27,5.77-5.08,5.77-5.09-2.58-5.09-5.77,2.28-5.78,5.09-5.78Z"/>
        <ellipse class="cls-9" cx="225.69" cy="189.91" rx="12.29" ry="8.34"/>
        <path class="cls-1" d="M223.27,349.13c2.02,2.5-.1,7.55-4.72,11.28-4.63,3.74-10.01,4.74-12.03,2.24-2.02-2.49.1-7.55,4.73-11.28,4.62-3.73,10.01-4.74,12.02-2.24Z"/>
        <path class="cls-1" d="M219.95,320.39c2.69,3.34.06,9.94-5.89,14.74-5.95,4.8-12.95,5.99-15.65,2.64-2.7-3.34-.06-9.94,5.88-14.74,5.95-4.8,12.96-5.98,15.66-2.64Z"/>
        <path class="cls-1" d="M210.38,149.86c.77,6.59-1.72,12.3-5.55,12.74-3.84.45-7.57-4.53-8.34-11.12s1.72-12.29,5.56-12.74c3.83-.44,7.57,4.53,8.33,11.12Z"/>
        <path class="cls-5" d="M199.3,245.33c.78,1.99.84,4.23.09,6.29-2.14,5.83-5.61,11.14-10.92,15.61-10.51,8.86-25.82,11.64-38.77,7.03-20.7-7.37-31.69-30.74-33.11-52.66-.22-3.32-.27-6.64-.18-9.95,12.96,10.85,25.02,23.82,40.68,30.71,8.93,3.92,18.56,5.52,28.29,4.97,4.68-.27,9.34-.99,13.92-2Z"/>
        <path class="cls-1" d="M191.97,137.34c1.08,9.29-2.07,17.29-7.05,17.87s-9.89-6.48-10.97-15.77,2.08-17.3,7.05-17.88c4.98-.57,9.89,6.49,10.97,15.78Z"/>
        <path class="cls-4" d="M189.99,320.38c1.07-.38,1.94.92,1.19,1.77-12.1,13.79-23.99,27.97-32.93,43.9-7.73.54-15.7.95-23.88,1.22-17.08.57-33.26.45-48.43-.15-11.22-.21-20.55,6.36-22.82,15.12-1.23,4.73-1.03,12.45,3.53,15.49,2.73,1.81,6.45,1.62,9.48.78,3.34-.93,6.35-2.84,8.04-5.92,1.4-2.54,2.05-5.55,3.43-8.04,2.31-4.14,5.27-3.15,7.52.59,4.94,8.22,3.84,20.45-1.75,28.01-9.28,12.54-25.45,12.37-27.31,12.33-4.25-.55-15.42-2.55-25.39-11.68-13.08-11.99-14.57-27.56-14.82-31.12.06-5.04.89-20.51,12.22-34.93,3.07-3.91,6.69-7.4,10.66-10.39,17.25-13,37.95-11.19,58.31-11.14,9.01.03,18.01.11,27.02.03,9.61-.09,19.35-.24,28.96-1.32,9.16-.01,18.28-1.47,26.97-4.55ZM58.31,409.39c2.29-1.32,2-6.11-.65-10.7-2.64-4.59-6.65-7.23-8.94-5.91-2.3,1.32-2.01,6.12.64,10.7,2.65,4.59,6.65,7.24,8.95,5.91ZM42.2,388.84c2.56-.68,3.52-5.39,2.16-10.51-1.37-5.11-4.55-8.71-7.11-8.03-2.55.68-3.52,5.39-2.16,10.51,1.37,5.11,4.55,8.71,7.11,8.03ZM41.9,405.27c1.7-.99,1.45-4.64-.58-8.15s-5.06-5.55-6.76-4.57c-1.71.99-1.45,4.64.57,8.15,2.03,3.51,5.06,5.55,6.77,4.57Z"/>
        <path class="cls-1" d="M91.81,157.63c3.28.98,4.26,7.33,2.21,14.18-2.06,6.84-6.38,11.59-9.65,10.61-3.28-.98-4.27-7.33-2.21-14.18,2.05-6.84,6.38-11.59,9.65-10.61Z"/>
        <path class="cls-1" d="M87.06,197.88c4.28.44,7.08,7.18,6.28,15.06-.81,7.88-4.92,13.91-9.19,13.47-4.27-.43-7.08-7.18-6.28-15.05.81-7.88,4.92-13.91,9.19-13.48Z"/>
        <path class="cls-7" d="M67.84,190c-2.68,12.2-3.59,24.83-2.68,37.26-6.27-1.55-12.83-2.02-18.96-.18-5.54,1.66-10.49,5.2-13.85,9.9-2.37,3.32-3.98,7.42-3.28,11.43.71,4.01,4.3,7.65,8.36,7.39,1.86-.12,3.62-.99,5.48-1.13,5.06-.39,9.12,5.22,8.43,10.25-.7,5.02-4.89,8.98-9.55,10.98-6.53,2.8-14.22,2.45-20.73-.4-6.51-2.86-11.85-8.08-15.41-14.23-4.58-7.94-6.26-17.39-5.46-26.52.88-10.13,4.81-20.04,11.44-27.75,12.07-14.04,31.97-19.55,50.39-17.76,1.91.18,3.86.44,5.82.76ZM25.2,219.22c2.1-4.7,1.08-9.73-2.28-11.23s-7.79,1.09-9.89,5.79c-2.1,4.69-1.08,9.72,2.28,11.22,3.36,1.51,7.79-1.08,9.89-5.78ZM9.12,248.15c2.51-.11,4.38-3.99,4.17-8.65-.21-4.67-2.42-8.36-4.93-8.24-2.51.11-4.38,3.98-4.17,8.65.21,4.66,2.42,8.35,4.93,8.24Z"/>
        <path class="cls-3" d="M57.66,398.69c2.65,4.59,2.94,9.38.65,10.7-2.3,1.33-6.3-1.32-8.95-5.91-2.65-4.58-2.94-9.38-.64-10.7,2.29-1.32,6.3,1.32,8.94,5.91Z"/>
        <path class="cls-3" d="M44.36,378.33c1.36,5.12.4,9.83-2.16,10.51s-5.74-2.92-7.11-8.03c-1.36-5.12-.39-9.83,2.16-10.51,2.56-.68,5.74,2.92,7.11,8.03Z"/>
        <path class="cls-3" d="M41.32,397.12c2.03,3.51,2.28,7.16.58,8.15-1.71.98-4.74-1.06-6.77-4.57-2.02-3.51-2.28-7.16-.57-8.15,1.7-.98,4.73,1.06,6.76,4.57Z"/>
        <path class="cls-3" d="M22.92,207.99c3.36,1.5,4.38,6.53,2.28,11.23s-6.53,7.29-9.89,5.78c-3.36-1.5-4.38-6.53-2.28-11.22,2.1-4.7,6.53-7.29,9.89-5.79Z"/>
        <path class="cls-3" d="M13.29,239.5c.21,4.66-1.66,8.54-4.17,8.65s-4.72-3.58-4.93-8.24c-.21-4.67,1.66-8.54,4.17-8.65,2.51-.12,4.72,3.57,4.93,8.24Z"/>
      </g>
      <path class="cls-10" d="M269.9,175.84c2.47,6.75,8.71,14.56,15.39,7.16,1.71-1.91,2.92-4.42,3.84-7.15.12-.41.56-.63.96-.5.3.1.5.37.51.67.54,6.48-3.84,14.5-11.16,14.65-5.6.12-10.03-4.72-11.06-9.86-.21-1.15-1.1-5.81.78-5.57.35.05.62.28.74.58h0Z"/>
    </g>
  </g>
</svg>